<?xml version="1.0" standalone="no"?>
<!DOCTYPE svg PUBLIC "-//W3C//DTD SVG 20010904//EN"
 "http://www.w3.org/TR/2001/REC-SVG-20010904/DTD/svg10.dtd">
<svg version="1.0" xmlns="http://www.w3.org/2000/svg"
 width="109.000000pt" height="109.000000pt" viewBox="0 0 109.000000 109.000000"
 preserveAspectRatio="xMidYMid meet">
<metadata>
Created by potrace 1.14, written by Peter Selinger 2001-2017
</metadata>
<g transform="translate(0.000000,109.000000) scale(0.100000,-0.100000)"
fill="#000000" stroke="none">
<path d="M245 879 c-114 -40 -189 -115 -226 -227 -56 -168 24 -347 191 -426
58 -27 75 -31 155 -31 69 1 101 5 135 21 45 20 45 20 90 1 96 -43 238 -30 332
29 216 137 221 452 9 591 -70 46 -151 67 -230 60 -61 -6 -132 -25 -147 -39 -3
-4 -27 3 -52 15 -69 30 -180 33 -257 6z"/>
</g>
</svg>
